<?xml version="1.0" encoding="iso-8859-1"?>
<?xml-stylesheet type="text/css" href="../../sass/main.css" ?>
<svg xmlns="http://www.w3.org/2000/svg" viewBox="0 0 11 16" width="11" height="16">
	<g id="Third">
		<path class="ico ico-arrow" d="M11.01 1.33C11.01 1.18 10.93 1.05 10.82 0.96L9.87 0.16C9.76 0.06 9.59 0 9.44 0C9.28 0 9.11 0.06 9 0.16L0.18 7.63C0.07 7.73 -0.01 7.87 -0.01 8C-0.01 8.13 0.07 8.27 0.18 8.37L9 15.84C9.11 15.94 9.28 16 9.44 16C9.59 16 9.76 15.94 9.87 15.84L10.82 15.04C10.93 14.94 11.01 14.8 11.01 14.67C11.01 14.54 10.93 14.4 10.82 14.3L3.38 8L10.82 1.7C10.93 1.6 11.01 1.46 11.01 1.33Z" />
	</g>
</svg>