<?xml version="1.0" encoding="iso-8859-1"?>
<?xml-stylesheet type="text/css" href="../../sass/main.css" ?>
<svg xmlns="http://www.w3.org/2000/svg" viewBox="0 0 11 16" width="11" height="16">
	<g id="Third">
		<path class="ico ico-arrow" d="M11 8C11 7.87 10.92 7.73 10.81 7.63L2.01 0.16C1.89 0.06 1.72 0 1.57 0C1.42 0 1.25 0.06 1.14 0.16L0.19 0.96C0.08 1.05 0 1.2 0 1.33C0 1.46 0.08 1.6 0.19 1.7L7.62 8L0.19 14.3C0.08 14.4 0 14.54 0 14.67C0 14.81 0.08 14.94 0.19 15.04L1.14 15.84C1.25 15.94 1.42 16 1.57 16C1.72 16 1.89 15.94 2.01 15.84L10.81 8.37C10.92 8.27 11 8.13 11 8Z" />
	</g>
</svg>