<?xml version="1.0" encoding="iso-8859-1"?>
<?xml-stylesheet type="text/css" href="../../sass/main.css" ?>
<svg xmlns="http://www.w3.org/2000/svg" viewBox="0 0 21 24" width="21" height="24">
	<g id="Seventh">
		<path id="fa-apple" class="ico" d="M20.99 17.52C20.11 17.26 19.31 16.65 18.61 15.7C17.92 14.75 17.57 13.67 17.57 12.49C17.57 11.39 17.91 10.39 18.55 9.5C18.91 9 19.49 8.43 20.27 7.8C19.76 7.19 19.23 6.7 18.7 6.36C17.77 5.74 16.7 5.42 15.49 5.42C14.76 5.42 13.88 5.59 12.89 5.91C11.89 6.24 11.17 6.4 10.73 6.4C10.38 6.4 9.69 6.26 8.65 5.97C7.6 5.68 6.72 5.53 5.98 5.53C4.25 5.53 2.83 6.23 1.7 7.61C0.57 9.01 0 10.8 0 13C0 15.37 0.75 17.78 2.22 20.26C3.71 22.74 5.2 23.99 6.75 23.99C7.25 23.99 7.91 23.84 8.74 23.5C9.56 23.19 10.28 23.03 10.88 23.03C11.5 23.03 12.27 23.17 13.16 23.49C14.06 23.79 14.76 23.95 15.27 23.95C16.55 23.95 17.84 23.01 19.14 21.12C20.02 19.87 20.62 18.66 20.99 17.52ZM15.33 0.6C15.33 0.5 15.31 0.41 15.31 0.31C15.3 0.23 15.27 0.13 15.24 0C13.49 0.39 12.22 1.09 11.47 2.13C10.72 3.17 10.32 4.41 10.29 5.84C11 5.78 11.51 5.69 11.86 5.59C12.4 5.42 12.95 5.07 13.49 4.55C14.12 3.95 14.59 3.28 14.89 2.56C15.18 1.86 15.33 1.19 15.33 0.6Z" />
	</g>
</svg>