<?xml version="1.0" encoding="iso-8859-1"?>
<?xml-stylesheet type="text/css" href="../../sass/main.css" ?>
<svg xmlns="http://www.w3.org/2000/svg" viewBox="0 0 25 29" width="25" height="29">
	<g id="Seventh">
		<path id="fa-android" class="ico" d="M8.75 6.18C8.38 6.18 8.08 5.87 8.08 5.5C8.08 5.13 8.38 4.82 8.75 4.82C9.14 4.82 9.44 5.13 9.44 5.5C9.44 5.87 9.14 6.18 8.75 6.18ZM16.24 6.18C15.85 6.18 15.55 5.87 15.55 5.5C15.55 5.13 15.85 4.82 16.24 4.82C16.61 4.82 16.92 5.13 16.92 5.5C16.92 5.87 16.61 6.18 16.24 6.18ZM1.83 9.39C0.82 9.39 0 10.19 0 11.17L0 18.67C0 19.66 0.82 20.46 1.83 20.46C2.84 20.46 3.64 19.66 3.64 18.67L3.64 11.17C3.64 10.19 2.82 9.39 1.83 9.39ZM20.64 9.72L4.35 9.72L4.35 21.33C4.35 22.4 5.22 23.25 6.3 23.25L7.61 23.25L7.63 27.21C7.63 28.21 8.45 29.01 9.44 29.01C10.45 29.01 11.27 28.21 11.27 27.21L11.27 23.25L13.72 23.25L13.72 27.21C13.72 28.21 14.54 29.01 15.55 29.01C16.56 29.01 17.38 28.21 17.38 27.21L17.38 23.25L18.71 23.25C19.77 23.25 20.64 22.4 20.64 21.33L20.64 9.72ZM16.52 2.66L17.78 0.37C17.86 0.25 17.82 0.09 17.7 0.02C17.57 -0.03 17.41 0.01 17.34 0.13L16.06 2.43C14.98 1.96 13.77 1.7 12.5 1.7C11.22 1.7 10.01 1.96 8.93 2.43L7.65 0.13C7.58 0.01 7.42 -0.03 7.29 0.02C7.17 0.09 7.14 0.25 7.21 0.37L8.47 2.66C5.96 3.91 4.28 6.32 4.28 9.09L20.7 9.09C20.7 6.32 19.01 3.91 16.52 2.66ZM24.99 11.17C24.99 10.17 24.17 9.39 23.16 9.39C22.17 9.39 21.35 10.17 21.35 11.17L21.35 18.67C21.35 19.66 22.17 20.46 23.16 20.46C24.17 20.46 24.99 19.66 24.99 18.67L24.99 11.17Z" />
	</g>
</svg>